<?xml version="1.0" encoding="UTF-8" standalone="no"?>
<!-- Created with Inkscape (http://www.inkscape.org/) -->

<svg
   xmlns:dc="http://purl.org/dc/elements/1.1/"
   xmlns:cc="http://creativecommons.org/ns#"
   xmlns:rdf="http://www.w3.org/1999/02/22-rdf-syntax-ns#"
   xmlns:svg="http://www.w3.org/2000/svg"
   xmlns="http://www.w3.org/2000/svg"
   xmlns:sodipodi="http://sodipodi.sourceforge.net/DTD/sodipodi-0.dtd"
   xmlns:inkscape="http://www.inkscape.org/namespaces/inkscape"
   width="90.311111mm"
   height="90.311111mm"
   viewBox="0 0 90.311111 90.311111"
   version="1.1"
   id="svg8"
   sodipodi:docname="trollface.svg"
   inkscape:version="0.92.3 (2405546, 2018-03-11)">
  <defs
     id="defs2" />
  <sodipodi:namedview
     id="base"
     pagecolor="#ffffff"
     bordercolor="#666666"
     borderopacity="1.0"
     inkscape:pageopacity="0.0"
     inkscape:pageshadow="2"
     inkscape:zoom="0.98994949"
     inkscape:cx="569.8398"
     inkscape:cy="279.77324"
     inkscape:document-units="mm"
     inkscape:current-layer="g3833"
     showgrid="false"
     inkscape:window-width="1920"
     inkscape:window-height="1116"
     inkscape:window-x="1920"
     inkscape:window-y="28"
     inkscape:window-maximized="1" />
  <metadata
     id="metadata5">
    <rdf:RDF>
      <cc:Work
         rdf:about="">
        <dc:format>image/svg+xml</dc:format>
        <dc:type
           rdf:resource="http://purl.org/dc/dcmitype/StillImage" />
      </cc:Work>
    </rdf:RDF>
  </metadata>
  <g
     inkscape:label="Layer 1"
     inkscape:groupmode="layer"
     id="layer1"
     transform="translate(-79.104114,-90.826577)">
    <g
       id="g3833"
       transform="translate(-0.66145831,0.37797617)">
      <path
         style="fill:#ffffff;stroke-width:0.35277778;fill-opacity:0"
         d="m 79.765572,158.18193 v -22.57777 h 2.822222 2.822222 v 5.64444 5.64445 h 2.822223 2.822222 v 2.82222 2.82222 h 2.822222 2.822222 v 2.82222 2.82222 h 5.644445 5.64444 v 2.82223 2.82222 h 5.64445 5.64444 v 2.82222 2.82222 h 5.64445 5.64444 v 2.82223 2.82222 h 11.28889 11.28889 v -2.82222 -2.82223 h 2.82222 2.82222 v -2.82222 -2.82222 h 2.82223 2.82222 V 152.53749 141.2486 h 2.82222 2.82222 v 19.75556 19.75555 H 124.92113 79.765572 Z m 84.666668,-39.51111 v -5.64444 h -2.82222 -2.82223 v -2.82222 -2.82223 h -2.82222 -2.82222 v -2.82222 -2.82222 h -2.82222 -2.82222 v -2.822222 -2.822223 h -22.57778 -22.57778 v 2.822223 2.822222 h -2.822222 -2.822223 v 2.82222 2.82222 h -2.822222 -2.822222 v 2.82223 2.82222 h -2.822222 -2.822223 v 2.82222 2.82222 H 82.587794 79.765572 V 104.55971 90.448601 h 45.155558 45.15555 v 16.933329 16.93334 h -2.82222 -2.82222 z"
         id="path3849"
         inkscape:connector-curvature="0" />
      <path
         style="fill:#fefefe;stroke-width:0.35277778"
         d="m 124.92113,161.00416 v -2.82223 h -5.64445 -5.64444 v -2.82222 -2.82222 h -5.64445 -5.64444 v -2.82222 -2.82222 h -2.822222 -2.822223 v -2.82223 -2.82222 h -2.822222 -2.822222 v -5.64444 -5.64445 h -2.822222 -2.822223 v -2.82222 -2.82222 h 2.822223 2.822222 v -2.82222 -2.82223 h 2.822222 2.822222 v -2.82222 -2.82222 h 2.822223 2.822222 v 2.82222 2.82222 h 2.82222 2.82222 v 2.82223 2.82222 h 5.64445 5.64444 v 2.82222 2.82222 h 2.82223 2.82222 v -11.28889 -11.28889 h 5.64444 5.64445 v 11.28889 11.28889 h -5.64445 -5.64444 v 2.82222 2.82223 h -5.64445 -5.64444 v -2.82223 -2.82222 h -5.64445 -5.64444 v -2.82222 -2.82222 h -5.644445 -5.644444 v 2.82222 2.82222 h 2.822222 2.822222 v 2.82222 2.82223 h 2.822223 2.822222 v 5.64444 5.64445 h 5.64444 5.64445 v 2.82222 2.82222 h 5.64444 5.64445 v -2.82222 -2.82222 h -2.82222 -2.82223 v -2.82223 -2.82222 h 2.82223 2.82222 v 2.82222 2.82223 h 2.82222 2.82222 v -2.82223 -2.82222 h 2.82222 2.82223 v 2.82222 2.82223 h 2.82222 2.82222 v -2.82223 -2.82222 h 2.82222 2.82223 v 2.82222 2.82223 h -2.82223 -2.82222 v 2.82222 2.82222 h -2.82222 -2.82222 v -2.82222 -2.82222 h -2.82223 -2.82222 v 2.82222 2.82222 h -2.82222 -2.82222 v 2.82222 2.82222 h 11.28889 11.28889 v -2.82222 -2.82222 h 2.82222 2.82222 V 141.2486 129.95971 h -2.82222 -2.82222 v 2.82222 2.82223 h -2.82223 -2.82222 v -5.64445 -5.64444 h 5.64445 5.64444 v 2.82222 2.82222 h 2.82222 2.82222 v 14.11111 14.11111 h -2.82222 -2.82222 v 2.82223 2.82222 h -14.11111 -14.11111 z"
         id="path3847"
         inkscape:connector-curvature="0" />
      <path
         style="fill:#cbcbcb;stroke-width:0.35277778"
         d="m 130.56557,166.6486 v -2.82222 h 11.28889 11.28889 v -2.82222 -2.82223 h 2.82222 2.82222 v 2.82223 2.82222 h -2.82222 -2.82222 v 2.82222 2.82222 h -11.28889 -11.28889 z m -11.28889,-5.64444 v -2.82223 h 2.82223 2.82222 v 2.82223 2.82222 h -2.82222 -2.82223 z m -11.28889,-5.64445 v -2.82222 h 2.82223 2.82222 v 2.82222 2.82222 h -2.82222 -2.82223 z m -11.288885,-5.64444 v -2.82222 h -2.822222 -2.822222 v -2.82223 -2.82222 h 2.822222 2.822222 v 2.82222 2.82223 h 2.822223 2.822222 v 2.82222 2.82222 h -2.822222 -2.822223 z m 11.288885,-11.28889 v -2.82222 h 2.82223 2.82222 v 2.82222 2.82222 h -2.82222 -2.82223 z m -22.577774,-5.64445 v -2.82222 h 2.822223 2.822222 v 2.82222 2.82223 h -2.822222 -2.822223 z m 73.377774,0 v -2.82222 h -2.82222 -2.82222 v -5.64444 -5.64445 h -2.82222 -2.82222 v -2.82222 -2.82222 h 5.64444 5.64444 v 5.64444 5.64445 h 2.82223 2.82222 v 5.64444 5.64445 h -2.82222 -2.82223 z M 85.410016,121.49305 v -2.82223 h 2.822223 2.822222 v -2.82222 -2.82222 h 2.822222 2.822222 v -2.82222 -2.82223 h 2.822223 2.822222 v -2.82222 -2.82222 h 22.57778 22.57778 v 2.82222 2.82222 h -22.57778 -22.57778 v 2.82223 2.82222 h 2.82222 2.82222 v 2.82222 2.82222 h -2.82222 -2.82222 v -2.82222 -2.82222 h -2.822222 -2.822223 v 2.82222 2.82222 h -2.822222 -2.822222 v 2.82223 2.82222 h -2.822222 -2.822223 z m 33.866664,-5.64445 v -2.82222 h 2.82223 2.82222 v 2.82222 2.82222 h -2.82222 -2.82223 z"
         id="path3845"
         inkscape:connector-curvature="0" />
      <path
         style="fill:#c1c1c1;stroke-width:0.35277778"
         d="m 147.49891,110.20416 v -2.82223 h 2.82222 2.82222 v 2.82223 2.82222 h -2.82222 -2.82222 z"
         id="path3843"
         inkscape:connector-curvature="0" />
      <path
         style="fill:#a2a2a2;stroke-width:0.35277778"
         d="m 107.98779,115.8486 v -2.82222 h 5.64445 5.64444 v 2.82222 2.82222 h -5.64444 -5.64445 z m 28.22223,0 v -2.82222 h 5.64444 5.64445 v 2.82222 2.82222 h -5.64445 -5.64444 z"
         id="path3841"
         inkscape:connector-curvature="0" />
      <path
         style="fill:#7a7a7a;stroke-width:0.35277778"
         d="m 102.34335,110.20416 v -2.82223 h 11.28889 11.28889 v 2.82223 2.82222 h -11.28889 -11.28889 z m 33.86667,0 v -2.82223 h 5.64444 5.64445 v 2.82223 2.82222 h -5.64445 -5.64444 z"
         id="path3839"
         inkscape:connector-curvature="0" />
      <path
         style="fill:#5a5a5a;stroke-width:0.35277778"
         d="m 124.92113,132.78193 v -2.82222 h 8.46666 8.46667 v 2.82222 2.82223 h -8.46667 -8.46666 z"
         id="path3837"
         inkscape:connector-curvature="0" />
      <path
         style="fill:#000000;stroke-width:0.35277778"
         d="m 130.56557,172.29305 v -2.82223 h -5.64444 -5.64445 v -2.82222 -2.82222 h -5.64444 -5.64445 v -2.82222 -2.82223 h -5.64444 -5.644445 v -2.82222 -2.82222 h -2.822222 -2.822222 v -2.82222 -2.82222 h -2.822222 -2.822223 v -5.64445 -5.64444 h -2.822222 -2.822222 v -8.46667 -8.46667 h 2.822222 2.822222 v -2.82222 -2.82222 h 2.822223 2.822222 v -2.82222 -2.82223 h 2.822222 2.822222 v -2.82222 -2.82222 h 2.822223 2.822222 v -2.822222 -2.822223 h 22.57778 22.57778 v 2.822223 2.822222 h 2.82222 2.82222 v 2.82222 2.82222 h 2.82222 2.82222 v 2.82223 2.82222 h 2.82223 2.82222 v 5.64444 5.64445 h 2.82222 2.82222 v 8.46666 8.46667 h -2.82222 -2.82222 v 11.28889 11.28889 h -2.82222 -2.82223 v 2.82222 2.82222 h -2.82222 -2.82222 v 2.82223 2.82222 h -11.28889 -11.28889 z m 22.57778,-5.64445 v -2.82222 h 2.82222 2.82222 v -14.11111 -14.11111 h 2.82223 2.82222 v -5.64445 -5.64444 h -2.82222 -2.82223 v -5.64445 -5.64444 h -2.82222 -2.82222 v -2.82222 -2.82223 h -2.82222 -2.82222 v -2.82222 -2.82222 h -22.57778 -22.57778 v 2.82222 2.82222 h -2.822222 -2.822223 v 2.82223 2.82222 h -2.822222 -2.822222 v 2.82222 2.82222 h -2.822222 -2.822223 v 8.46667 8.46667 h 2.822223 2.822222 v 5.64444 5.64445 h 2.822222 2.822222 v 2.82222 2.82222 h 5.644445 5.64444 v 2.82222 2.82222 h 5.64445 5.64444 v 2.82223 2.82222 h 5.64445 5.64444 v 2.82222 2.82222 h 11.28889 11.28889 z m -28.22222,-11.28889 v -2.82222 h -5.64445 -5.64444 v -2.82222 -2.82222 h -5.64445 -5.64444 v -5.64445 -5.64444 h -2.822222 -2.822223 v -2.82223 -2.82222 h -2.822222 -2.822222 v -2.82222 -2.82222 h 5.644444 5.644445 v 2.82222 2.82222 h 5.64444 5.64445 v 2.82222 2.82223 h 16.93333 16.93334 v -2.82223 -2.82222 h 2.82222 2.82222 v 11.28889 11.28889 h -2.82222 -2.82222 v 2.82222 2.82222 h -11.28889 -11.28889 z m 5.64444,-5.64444 v -2.82222 h 2.82222 2.82223 v 2.82222 2.82222 h 2.82222 2.82222 v -2.82222 -2.82222 h 2.82222 2.82223 v -2.82223 -2.82222 h -2.82223 -2.82222 v 2.82222 2.82223 h -2.82222 -2.82222 v -2.82223 -2.82222 h -2.82223 -2.82222 v 2.82222 2.82223 h -2.82222 -2.82222 v -2.82223 -2.82222 h -2.82222 -2.82223 v 2.82222 2.82223 h 2.82223 2.82222 v 2.82222 2.82222 h 2.82222 2.82222 z m -16.93333,-11.28889 v -2.82222 h -2.82222 -2.82223 v 2.82222 2.82222 h 2.82223 2.82222 z m 5.64444,-11.28889 v -2.82222 h -5.64444 -5.64445 v -2.82222 -2.82223 h 8.46667 8.46667 v 5.64445 5.64444 h -2.82222 -2.82223 z m 16.93334,-2.82222 v -5.64445 h 8.46666 8.46667 v 2.82223 2.82222 h -5.64444 -5.64445 v 2.82222 2.82222 h -2.82222 -2.82222 z"
         id="path3835"
         inkscape:connector-curvature="0" />
    </g>
  </g>
</svg>
